<?xml version="1.0" encoding="UTF-8" standalone="no"?>
<!DOCTYPE svg PUBLIC "-//W3C//DTD SVG 1.1//EN"
 "http://www.w3.org/Graphics/SVG/1.1/DTD/svg11.dtd">
<!-- Generated by graphviz version 2.26.3 (20100126.1600)
 -->
<!-- Title: pipeline Pages: 1 -->
<svg width="1230pt" height="302pt"
 viewBox="0.00 0.00 1230.00 302.00" xmlns="http://www.w3.org/2000/svg" xmlns:xlink="http://www.w3.org/1999/xlink">
<g id="graph1" class="graph" transform="scale(1 1) rotate(0) translate(4 298)">
<title>pipeline</title>
<polygon fill="white" stroke="white" points="-4,5 -4,-298 1227,-298 1227,5 -4,5"/>
<text text-anchor="middle" x="611" y="-281" font-family="sans" font-size="10.00">&lt;GstPipeline&gt;</text>
<text text-anchor="middle" x="611" y="-268" font-family="sans" font-size="10.00">Connection Pipe on the Client</text>
<g id="graph2" class="cluster"><title>cluster_tcp_client_sink_0x7f7b405d7c30</title>
<polygon fill="#aaaaff" stroke="black" points="1125,-8 1125,-76 1214,-76 1214,-8 1125,-8"/>
<text text-anchor="middle" x="1169.5" y="-64.8" font-family="Bitstream Vera Sans" font-size="8.00">GstTCPClientSink</text>
<text text-anchor="middle" x="1169.5" y="-54.8" font-family="Bitstream Vera Sans" font-size="8.00">tcp client sink</text>
<text text-anchor="middle" x="1169.5" y="-44.8" font-family="Bitstream Vera Sans" font-size="8.00">port=5001</text>
</g>
<g id="graph3" class="cluster"><title>cluster_queue_for_the_network_on_client_0x7f7b405b8360</title>
<polygon fill="#aaffaa" stroke="black" points="967,-8 967,-87 1117,-87 1117,-8 967,-8"/>
<text text-anchor="middle" x="1042" y="-75.8" font-family="Bitstream Vera Sans" font-size="8.00">GstQueue</text>
<text text-anchor="middle" x="1042" y="-65.8" font-family="Bitstream Vera Sans" font-size="8.00">queue for the network on client</text>
</g>
<g id="graph4" class="cluster"><title>cluster_ogg_muxer_on_client_0x7f7b405d2000</title>
<polygon fill="#aaffaa" stroke="black" points="858,-29 858,-108 959,-108 959,-29 858,-29"/>
<text text-anchor="middle" x="908.5" y="-96.8" font-family="Bitstream Vera Sans" font-size="8.00">GstOggMux</text>
<text text-anchor="middle" x="908.5" y="-86.8" font-family="Bitstream Vera Sans" font-size="8.00">ogg muxer on client</text>
</g>
<g id="graph5" class="cluster"><title>cluster_theory_encoder_on_client_0x7f7b405cb0a0</title>
<polygon fill="#aaffaa" stroke="black" points="730,-50 730,-129 850,-129 850,-50 730,-50"/>
<text text-anchor="middle" x="790" y="-117.8" font-family="Bitstream Vera Sans" font-size="8.00">GstTheoraEnc</text>
<text text-anchor="middle" x="790" y="-107.8" font-family="Bitstream Vera Sans" font-size="8.00">theory encoder on client</text>
</g>
<g id="graph6" class="cluster"><title>cluster_color_switcher_for_client_encoding_0x7f7b405c6010</title>
<polygon fill="#aaffaa" stroke="black" points="564,-71 564,-160 722,-160 722,-71 564,-71"/>
<text text-anchor="middle" x="643" y="-148.8" font-family="Bitstream Vera Sans" font-size="8.00">GstFFMpegCsp</text>
<text text-anchor="middle" x="643" y="-138.8" font-family="Bitstream Vera Sans" font-size="8.00">color switcher for client encoding</text>
<text text-anchor="middle" x="643" y="-128.8" font-family="Bitstream Vera Sans" font-size="8.00">qos=TRUE</text>
</g>
<g id="graph7" class="cluster"><title>cluster_queue_in_front_of_the_client_encoder_0x7f7b405b80d0</title>
<polygon fill="#aaffaa" stroke="black" points="389,-92 389,-171 556,-171 556,-92 389,-92"/>
<text text-anchor="middle" x="472.5" y="-159.8" font-family="Bitstream Vera Sans" font-size="8.00">GstQueue</text>
<text text-anchor="middle" x="472.5" y="-149.8" font-family="Bitstream Vera Sans" font-size="8.00">queue in front of the client encoder</text>
</g>
<g id="graph8" class="cluster"><title>cluster_filter_0x7f7b405b4040</title>
<polygon fill="#aaffaa" stroke="black" points="307,-113 307,-202 381,-202 381,-113 307,-113"/>
<text text-anchor="middle" x="344" y="-190.8" font-family="Bitstream Vera Sans" font-size="8.00">GstCapsFilter</text>
<text text-anchor="middle" x="344" y="-180.8" font-family="Bitstream Vera Sans" font-size="8.00">filter</text>
<text text-anchor="middle" x="344" y="-170.8" font-family="Bitstream Vera Sans" font-size="8.00">caps=ANY</text>
</g>
<g id="graph9" class="cluster"><title>cluster_video_capturing_source_0x7f7b405ae0e0</title>
<polygon fill="#ffaaaa" stroke="black" points="8,-134 8,-252 299,-252 299,-134 8,-134"/>
<text text-anchor="middle" x="153.5" y="-240.8" font-family="Bitstream Vera Sans" font-size="8.00">GstV4l2Src</text>
<text text-anchor="middle" x="153.5" y="-230.8" font-family="Bitstream Vera Sans" font-size="8.00">video capturing source</text>
<text text-anchor="middle" x="153.5" y="-220.8" font-family="Bitstream Vera Sans" font-size="8.00">device&#45;name=&quot;UVC Camera (064e:2100)&quot;</text>
<text text-anchor="middle" x="153.5" y="-210.8" font-family="Bitstream Vera Sans" font-size="8.00">device&#45;fd=31</text>
<text text-anchor="middle" x="153.5" y="-200.8" font-family="Bitstream Vera Sans" font-size="8.00">flags=((GstV4l2DeviceTypeFlags) Device supports video capture)</text>
<text text-anchor="middle" x="153.5" y="-190.8" font-family="Bitstream Vera Sans" font-size="8.00">brightness=63</text>
<text text-anchor="middle" x="153.5" y="-180.8" font-family="Bitstream Vera Sans" font-size="8.00">contrast=47</text>
<text text-anchor="middle" x="153.5" y="-170.8" font-family="Bitstream Vera Sans" font-size="8.00">saturation=63</text>
</g>
<!-- tcp_client_sink_0x7f7b405d7c30_sink_0x7f7b405cd320 -->
<g id="node2" class="node"><title>tcp_client_sink_0x7f7b405d7c30_sink_0x7f7b405cd320</title>
<polygon fill="#aaaaff" stroke="black" points="1196,-30 1142,-30 1142,-16 1196,-16 1196,-30"/>
<text text-anchor="middle" x="1169" y="-20.9" font-family="sans" font-size="9.00">sink</text>
</g>
<!-- queue_for_the_network_on_client_0x7f7b405b8360_sink_0x7f7b405cd020 -->
<g id="node4" class="node"><title>queue_for_the_network_on_client_0x7f7b405b8360_sink_0x7f7b405cd020</title>
<polygon fill="#aaaaff" stroke="black" points="1069,-51 1015,-51 1015,-37 1069,-37 1069,-51"/>
<text text-anchor="middle" x="1042" y="-41.9" font-family="sans" font-size="9.00">sink</text>
</g>
<!-- queue_for_the_network_on_client_0x7f7b405b8360_src_0x7f7b405cd1a0 -->
<g id="node5" class="node"><title>queue_for_the_network_on_client_0x7f7b405b8360_src_0x7f7b405cd1a0</title>
<polygon fill="#ffaaaa" stroke="black" points="1069,-30 1015,-30 1015,-16 1069,-16 1069,-30"/>
<text text-anchor="middle" x="1042" y="-20.9" font-family="sans" font-size="9.00">src</text>
</g>
<!-- queue_for_the_network_on_client_0x7f7b405b8360_src_0x7f7b405cd1a0&#45;&gt;tcp_client_sink_0x7f7b405d7c30_sink_0x7f7b405cd320 -->
<g id="edge4" class="edge"><title>queue_for_the_network_on_client_0x7f7b405b8360_src_0x7f7b405cd1a0&#45;&gt;tcp_client_sink_0x7f7b405d7c30_sink_0x7f7b405cd320</title>
<path fill="none" stroke="black" d="M1069.24,-23C1087.49,-23 1111.75,-23 1131.77,-23"/>
<polygon fill="black" stroke="black" points="1131.8,-26.5001 1141.8,-23 1131.8,-19.5001 1131.8,-26.5001"/>
</g>
<!-- ogg_muxer_on_client_0x7f7b405d2000_sink_2106834595_0x7f7b405cd4a0 -->
<g id="node8" class="node"><title>ogg_muxer_on_client_0x7f7b405d2000_sink_2106834595_0x7f7b405cd4a0</title>
<polygon fill="#aaaaff" stroke="black" stroke-dasharray="5,2" points="950,-72 866,-72 866,-58 950,-58 950,-72"/>
<text text-anchor="middle" x="908" y="-62.9" font-family="sans" font-size="9.00">sink_2106834595</text>
</g>
<!-- ogg_muxer_on_client_0x7f7b405d2000_src_0x7f7b405b0d80 -->
<g id="node9" class="node"><title>ogg_muxer_on_client_0x7f7b405d2000_src_0x7f7b405b0d80</title>
<polygon fill="#ffaaaa" stroke="black" points="935,-51 881,-51 881,-37 935,-37 935,-51"/>
<text text-anchor="middle" x="908" y="-41.9" font-family="sans" font-size="9.00">src</text>
</g>
<!-- ogg_muxer_on_client_0x7f7b405d2000_src_0x7f7b405b0d80&#45;&gt;queue_for_the_network_on_client_0x7f7b405b8360_sink_0x7f7b405cd020 -->
<g id="edge7" class="edge"><title>ogg_muxer_on_client_0x7f7b405d2000_src_0x7f7b405b0d80&#45;&gt;queue_for_the_network_on_client_0x7f7b405b8360_sink_0x7f7b405cd020</title>
<path fill="none" stroke="black" d="M935.117,-44C955.187,-44 982.764,-44 1004.88,-44"/>
<polygon fill="black" stroke="black" points="1004.92,-47.5001 1014.92,-44 1004.92,-40.5001 1004.92,-47.5001"/>
</g>
<!-- theory_encoder_on_client_0x7f7b405cb0a0_sink_0x7f7b405b0a80 -->
<g id="node12" class="node"><title>theory_encoder_on_client_0x7f7b405cb0a0_sink_0x7f7b405b0a80</title>
<polygon fill="#aaaaff" stroke="black" points="817,-93 763,-93 763,-79 817,-79 817,-93"/>
<text text-anchor="middle" x="790" y="-83.9" font-family="sans" font-size="9.00">sink</text>
</g>
<!-- theory_encoder_on_client_0x7f7b405cb0a0_src_0x7f7b405b0c00 -->
<g id="node13" class="node"><title>theory_encoder_on_client_0x7f7b405cb0a0_src_0x7f7b405b0c00</title>
<polygon fill="#ffaaaa" stroke="black" points="817,-72 763,-72 763,-58 817,-58 817,-72"/>
<text text-anchor="middle" x="790" y="-62.9" font-family="sans" font-size="9.00">src</text>
</g>
<!-- theory_encoder_on_client_0x7f7b405cb0a0_src_0x7f7b405b0c00&#45;&gt;ogg_muxer_on_client_0x7f7b405d2000_sink_2106834595_0x7f7b405cd4a0 -->
<g id="edge10" class="edge"><title>theory_encoder_on_client_0x7f7b405cb0a0_src_0x7f7b405b0c00&#45;&gt;ogg_muxer_on_client_0x7f7b405d2000_sink_2106834595_0x7f7b405cd4a0</title>
<path fill="none" stroke="black" d="M817.072,-65C828.566,-65 842.375,-65 855.719,-65"/>
<polygon fill="black" stroke="black" points="855.787,-68.5001 865.787,-65 855.787,-61.5001 855.787,-68.5001"/>
</g>
<!-- color_switcher_for_client_encoding_0x7f7b405c6010_sink_0x7f7b405b0780 -->
<g id="node16" class="node"><title>color_switcher_for_client_encoding_0x7f7b405c6010_sink_0x7f7b405b0780</title>
<polygon fill="#aaaaff" stroke="black" points="670,-114 616,-114 616,-100 670,-100 670,-114"/>
<text text-anchor="middle" x="643" y="-104.9" font-family="sans" font-size="9.00">sink</text>
</g>
<!-- color_switcher_for_client_encoding_0x7f7b405c6010_src_0x7f7b405b0900 -->
<g id="node17" class="node"><title>color_switcher_for_client_encoding_0x7f7b405c6010_src_0x7f7b405b0900</title>
<polygon fill="#ffaaaa" stroke="black" points="670,-93 616,-93 616,-79 670,-79 670,-93"/>
<text text-anchor="middle" x="643" y="-83.9" font-family="sans" font-size="9.00">src</text>
</g>
<!-- color_switcher_for_client_encoding_0x7f7b405c6010_src_0x7f7b405b0900&#45;&gt;theory_encoder_on_client_0x7f7b405cb0a0_sink_0x7f7b405b0a80 -->
<g id="edge13" class="edge"><title>color_switcher_for_client_encoding_0x7f7b405c6010_src_0x7f7b405b0900&#45;&gt;theory_encoder_on_client_0x7f7b405cb0a0_sink_0x7f7b405b0a80</title>
<path fill="none" stroke="black" d="M670.305,-86C693.511,-86 727.049,-86 752.724,-86"/>
<polygon fill="black" stroke="black" points="752.841,-89.5001 762.841,-86 752.841,-82.5001 752.841,-89.5001"/>
</g>
<!-- queue_in_front_of_the_client_encoder_0x7f7b405b80d0_sink_0x7f7b405b0480 -->
<g id="node20" class="node"><title>queue_in_front_of_the_client_encoder_0x7f7b405b80d0_sink_0x7f7b405b0480</title>
<polygon fill="#aaaaff" stroke="black" points="499,-135 445,-135 445,-121 499,-121 499,-135"/>
<text text-anchor="middle" x="472" y="-125.9" font-family="sans" font-size="9.00">sink</text>
</g>
<!-- queue_in_front_of_the_client_encoder_0x7f7b405b80d0_src_0x7f7b405b0600 -->
<g id="node21" class="node"><title>queue_in_front_of_the_client_encoder_0x7f7b405b80d0_src_0x7f7b405b0600</title>
<polygon fill="#ffaaaa" stroke="black" points="499,-114 445,-114 445,-100 499,-100 499,-114"/>
<text text-anchor="middle" x="472" y="-104.9" font-family="sans" font-size="9.00">src</text>
</g>
<!-- queue_in_front_of_the_client_encoder_0x7f7b405b80d0_src_0x7f7b405b0600&#45;&gt;color_switcher_for_client_encoding_0x7f7b405c6010_sink_0x7f7b405b0780 -->
<g id="edge16" class="edge"><title>queue_in_front_of_the_client_encoder_0x7f7b405b80d0_src_0x7f7b405b0600&#45;&gt;color_switcher_for_client_encoding_0x7f7b405c6010_sink_0x7f7b405b0780</title>
<path fill="none" stroke="black" d="M499.095,-107C527.778,-107 573.259,-107 605.403,-107"/>
<polygon fill="black" stroke="black" points="605.749,-110.5 615.749,-107 605.749,-103.5 605.749,-110.5"/>
</g>
<!-- filter_0x7f7b405b4040_sink_0x7f7b405b0180 -->
<g id="node24" class="node"><title>filter_0x7f7b405b4040_sink_0x7f7b405b0180</title>
<polygon fill="#aaaaff" stroke="black" points="371,-156 317,-156 317,-142 371,-142 371,-156"/>
<text text-anchor="middle" x="344" y="-146.9" font-family="sans" font-size="9.00">sink</text>
</g>
<!-- filter_0x7f7b405b4040_src_0x7f7b405b0300 -->
<g id="node25" class="node"><title>filter_0x7f7b405b4040_src_0x7f7b405b0300</title>
<polygon fill="#ffaaaa" stroke="black" points="371,-135 317,-135 317,-121 371,-121 371,-135"/>
<text text-anchor="middle" x="344" y="-125.9" font-family="sans" font-size="9.00">src</text>
</g>
<!-- filter_0x7f7b405b4040_src_0x7f7b405b0300&#45;&gt;queue_in_front_of_the_client_encoder_0x7f7b405b80d0_sink_0x7f7b405b0480 -->
<g id="edge19" class="edge"><title>filter_0x7f7b405b4040_src_0x7f7b405b0300&#45;&gt;queue_in_front_of_the_client_encoder_0x7f7b405b80d0_sink_0x7f7b405b0480</title>
<path fill="none" stroke="black" d="M371.146,-128C389.643,-128 414.372,-128 434.713,-128"/>
<polygon fill="black" stroke="black" points="434.894,-131.5 444.894,-128 434.894,-124.5 434.894,-131.5"/>
</g>
<!-- video_capturing_source_0x7f7b405ae0e0_src_0x7f7b405b0000 -->
<g id="node28" class="node"><title>video_capturing_source_0x7f7b405ae0e0_src_0x7f7b405b0000</title>
<polygon fill="#ffaaaa" stroke="black" points="180,-156 126,-156 126,-142 180,-142 180,-156"/>
<text text-anchor="middle" x="153" y="-146.9" font-family="sans" font-size="9.00">src</text>
</g>
<!-- video_capturing_source_0x7f7b405ae0e0_src_0x7f7b405b0000&#45;&gt;filter_0x7f7b405b4040_sink_0x7f7b405b0180 -->
<g id="edge22" class="edge"><title>video_capturing_source_0x7f7b405ae0e0_src_0x7f7b405b0000&#45;&gt;filter_0x7f7b405b4040_sink_0x7f7b405b0180</title>
<path fill="none" stroke="black" d="M180.366,-149C213.506,-149 269.489,-149 306.597,-149"/>
<polygon fill="black" stroke="black" points="306.994,-152.5 316.994,-149 306.994,-145.5 306.994,-152.5"/>
</g>
</g>
</svg>
