<?xml version="1.0" encoding="UTF-8" standalone="no"?>
<!DOCTYPE svg PUBLIC "-//W3C//DTD SVG 1.1//EN"
 "http://www.w3.org/Graphics/SVG/1.1/DTD/svg11.dtd">
<!-- Generated by graphviz version 2.26.3 (20100126.1600)
 -->
<!-- Title: pipeline Pages: 1 -->
<svg width="1242pt" height="189pt"
 viewBox="0.00 0.00 1242.00 189.00" xmlns="http://www.w3.org/2000/svg" xmlns:xlink="http://www.w3.org/1999/xlink">
<g id="graph1" class="graph" transform="scale(1 1) rotate(0) translate(4 185)">
<title>pipeline</title>
<polygon fill="white" stroke="white" points="-4,5 -4,-185 1239,-185 1239,5 -4,5"/>
<text text-anchor="middle" x="617" y="-168" font-family="sans" font-size="10.00">&lt;GstBin&gt;</text>
<text text-anchor="middle" x="617" y="-155" font-family="sans" font-size="10.00">Recorder subpipe on port 5001</text>
<g id="graph2" class="cluster"><title>cluster_File_Sink_on_port_5001_0x7f514c1dc9a0</title>
<polygon fill="#aaaaff" stroke="black" points="747,-8 747,-86 1226,-86 1226,-8 747,-8"/>
<text text-anchor="middle" x="986.5" y="-74.8" font-family="Bitstream Vera Sans" font-size="8.00">GstFileSink</text>
<text text-anchor="middle" x="986.5" y="-64.8" font-family="Bitstream Vera Sans" font-size="8.00">File Sink on port 5001</text>
<text text-anchor="middle" x="986.5" y="-54.8" font-family="Bitstream Vera Sans" font-size="8.00">sync=FALSE</text>
<text text-anchor="middle" x="986.5" y="-44.8" font-family="Bitstream Vera Sans" font-size="8.00">location=&quot;/home/marc/Arbeitsfl\303\244che/GDEBUG/Motion_on_port_5001_2012_12_11_00_28_21_140.ogg&quot;</text>
</g>
<g id="graph3" class="cluster"><title>cluster_ogg_muxer_on_server_on_port_5001_0x7f5134003690</title>
<polygon fill="#aaffaa" stroke="black" points="575,-8 575,-87 739,-87 739,-8 575,-8"/>
<text text-anchor="middle" x="657" y="-75.8" font-family="Bitstream Vera Sans" font-size="8.00">GstOggMux</text>
<text text-anchor="middle" x="657" y="-65.8" font-family="Bitstream Vera Sans" font-size="8.00">ogg muxer on server on port 5001</text>
</g>
<g id="graph4" class="cluster"><title>cluster_Theora_encoder_on_server_on_port_5001_0x7f514c1dc000</title>
<polygon fill="#aaffaa" stroke="black" points="381,-29 381,-108 567,-108 567,-29 381,-29"/>
<text text-anchor="middle" x="474" y="-96.8" font-family="Bitstream Vera Sans" font-size="8.00">GstTheoraEnc</text>
<text text-anchor="middle" x="474" y="-86.8" font-family="Bitstream Vera Sans" font-size="8.00">Theora encoder on server on port 5001</text>
</g>
<g id="graph5" class="cluster"><title>cluster_ffmpeg_color_space_server_recordbin_on_port_5001_0x7f514c1da020</title>
<polygon fill="#aaffaa" stroke="black" points="142,-50 142,-139 373,-139 373,-50 142,-50"/>
<text text-anchor="middle" x="257.5" y="-127.8" font-family="Bitstream Vera Sans" font-size="8.00">GstFFMpegCsp</text>
<text text-anchor="middle" x="257.5" y="-117.8" font-family="Bitstream Vera Sans" font-size="8.00">ffmpeg color space server recordbin on port 5001</text>
<text text-anchor="middle" x="257.5" y="-107.8" font-family="Bitstream Vera Sans" font-size="8.00">qos=TRUE</text>
</g>
<!-- File_Sink_on_port_5001_0x7f514c1dc9a0_sink_0x7f514d2111c0 -->
<g id="node2" class="node"><title>File_Sink_on_port_5001_0x7f514c1dc9a0_sink_0x7f514d2111c0</title>
<polygon fill="#aaaaff" stroke="black" points="1013,-30 959,-30 959,-16 1013,-16 1013,-30"/>
<text text-anchor="middle" x="986" y="-20.9" font-family="sans" font-size="9.00">sink</text>
</g>
<!-- ogg_muxer_on_server_on_port_5001_0x7f5134003690_sink_226003391_0x7f514d211340 -->
<g id="node4" class="node"><title>ogg_muxer_on_server_on_port_5001_0x7f5134003690_sink_226003391_0x7f514d211340</title>
<polygon fill="#aaaaff" stroke="black" stroke-dasharray="5,2" points="696,-51 618,-51 618,-37 696,-37 696,-51"/>
<text text-anchor="middle" x="657" y="-41.9" font-family="sans" font-size="9.00">sink_226003391</text>
</g>
<!-- ogg_muxer_on_server_on_port_5001_0x7f5134003690_src_0x7f514d211040 -->
<g id="node5" class="node"><title>ogg_muxer_on_server_on_port_5001_0x7f5134003690_src_0x7f514d211040</title>
<polygon fill="#ffaaaa" stroke="black" points="684,-30 630,-30 630,-16 684,-16 684,-30"/>
<text text-anchor="middle" x="657" y="-20.9" font-family="sans" font-size="9.00">src</text>
</g>
<!-- ogg_muxer_on_server_on_port_5001_0x7f5134003690_src_0x7f514d211040&#45;&gt;File_Sink_on_port_5001_0x7f514c1dc9a0_sink_0x7f514d2111c0 -->
<g id="edge4" class="edge"><title>ogg_muxer_on_server_on_port_5001_0x7f5134003690_src_0x7f514d211040&#45;&gt;File_Sink_on_port_5001_0x7f514c1dc9a0_sink_0x7f514d2111c0</title>
<path fill="none" stroke="black" d="M684.203,-23C742.95,-23 881.763,-23 948.668,-23"/>
<polygon fill="black" stroke="black" points="948.765,-26.5001 958.765,-23 948.765,-19.5001 948.765,-26.5001"/>
</g>
<!-- Theora_encoder_on_server_on_port_5001_0x7f514c1dc000_sink_0x7f514c015c80 -->
<g id="node8" class="node"><title>Theora_encoder_on_server_on_port_5001_0x7f514c1dc000_sink_0x7f514c015c80</title>
<polygon fill="#aaaaff" stroke="black" points="501,-72 447,-72 447,-58 501,-58 501,-72"/>
<text text-anchor="middle" x="474" y="-62.9" font-family="sans" font-size="9.00">sink</text>
</g>
<!-- Theora_encoder_on_server_on_port_5001_0x7f514c1dc000_src_0x7f514c015e00 -->
<g id="node9" class="node"><title>Theora_encoder_on_server_on_port_5001_0x7f514c1dc000_src_0x7f514c015e00</title>
<polygon fill="#ffaaaa" stroke="black" points="501,-51 447,-51 447,-37 501,-37 501,-51"/>
<text text-anchor="middle" x="474" y="-41.9" font-family="sans" font-size="9.00">src</text>
</g>
<!-- Theora_encoder_on_server_on_port_5001_0x7f514c1dc000_src_0x7f514c015e00&#45;&gt;ogg_muxer_on_server_on_port_5001_0x7f5134003690_sink_226003391_0x7f514d211340 -->
<g id="edge7" class="edge"><title>Theora_encoder_on_server_on_port_5001_0x7f514c1dc000_src_0x7f514c015e00&#45;&gt;ogg_muxer_on_server_on_port_5001_0x7f5134003690_sink_226003391_0x7f514d211340</title>
<path fill="none" stroke="black" d="M501.002,-44C528.934,-44 573.181,-44 607.428,-44"/>
<polygon fill="black" stroke="black" points="607.707,-47.5001 617.707,-44 607.707,-40.5001 607.707,-47.5001"/>
</g>
<!-- ffmpeg_color_space_server_recordbin_on_port_5001_0x7f514c1da020_sink_0x7f514c015980 -->
<g id="node12" class="node"><title>ffmpeg_color_space_server_recordbin_on_port_5001_0x7f514c1da020_sink_0x7f514c015980</title>
<polygon fill="#aaaaff" stroke="black" points="284,-93 230,-93 230,-79 284,-79 284,-93"/>
<text text-anchor="middle" x="257" y="-83.9" font-family="sans" font-size="9.00">sink</text>
</g>
<!-- ffmpeg_color_space_server_recordbin_on_port_5001_0x7f514c1da020_src_0x7f514c015b00 -->
<g id="node13" class="node"><title>ffmpeg_color_space_server_recordbin_on_port_5001_0x7f514c1da020_src_0x7f514c015b00</title>
<polygon fill="#ffaaaa" stroke="black" points="284,-72 230,-72 230,-58 284,-58 284,-72"/>
<text text-anchor="middle" x="257" y="-62.9" font-family="sans" font-size="9.00">src</text>
</g>
<!-- ffmpeg_color_space_server_recordbin_on_port_5001_0x7f514c1da020_src_0x7f514c015b00&#45;&gt;Theora_encoder_on_server_on_port_5001_0x7f514c1dc000_sink_0x7f514c015c80 -->
<g id="edge10" class="edge"><title>ffmpeg_color_space_server_recordbin_on_port_5001_0x7f514c1da020_src_0x7f514c015b00&#45;&gt;Theora_encoder_on_server_on_port_5001_0x7f514c1dc000_sink_0x7f514c015c80</title>
<path fill="none" stroke="black" d="M284.044,-65C322.565,-65 393.366,-65 436.803,-65"/>
<polygon fill="black" stroke="black" points="436.956,-68.5001 446.956,-65 436.956,-61.5001 436.956,-68.5001"/>
</g>
<!-- _proxypad7_0x7f514c1df290 -->
<g id="node15" class="node"><title>_proxypad7_0x7f514c1df290</title>
<polygon fill="lightgrey" stroke="black" points="134,-104 5.68434e-14,-104 0,-68 134,-68 134,-104"/>
<text text-anchor="middle" x="67" y="-83.9" font-family="sans" font-size="9.00">_proxypad7_0x7f514c1df290</text>
</g>
<!-- _proxypad7_0x7f514c1df290&#45;&gt;ffmpeg_color_space_server_recordbin_on_port_5001_0x7f514c1da020_sink_0x7f514c015980 -->
<g id="edge12" class="edge"><title>_proxypad7_0x7f514c1df290&#45;&gt;ffmpeg_color_space_server_recordbin_on_port_5001_0x7f514c1da020_sink_0x7f514c015980</title>
<path fill="none" stroke="black" d="M134.254,-86C162.896,-86 195.225,-86 219.513,-86"/>
<polygon fill="black" stroke="black" points="219.729,-89.5001 229.729,-86 219.729,-82.5001 219.729,-89.5001"/>
</g>
</g>
</svg>
