<?xml version="1.0" encoding="UTF-8" standalone="no"?>
<!DOCTYPE svg PUBLIC "-//W3C//DTD SVG 1.1//EN"
 "http://www.w3.org/Graphics/SVG/1.1/DTD/svg11.dtd">
<!-- Generated by graphviz version 2.26.3 (20100126.1600)
 -->
<!-- Title: pipeline Pages: 1 -->
<svg width="2494pt" height="486pt"
 viewBox="0.00 0.00 2494.00 486.00" xmlns="http://www.w3.org/2000/svg" xmlns:xlink="http://www.w3.org/1999/xlink">
<g id="graph1" class="graph" transform="scale(1 1) rotate(0) translate(4 482)">
<title>pipeline</title>
<polygon fill="white" stroke="white" points="-4,5 -4,-482 2491,-482 2491,5 -4,5"/>
<text text-anchor="middle" x="1243" y="-465" font-family="sans" font-size="10.00">&lt;GstPipeline&gt;</text>
<text text-anchor="middle" x="1243" y="-452" font-family="sans" font-size="10.00">Webcam Recorder/Player on Servers port 5001</text>
<g id="graph2" class="cluster"><title>cluster_Recorder_fake_subpipe_on_port_5001_0x7f51b069ea10</title>
<polygon fill="#ffffff" stroke="black" points="1589,-8 1589,-120 2092,-120 2092,-8 1589,-8"/>
<text text-anchor="middle" x="1840.5" y="-108.8" font-family="Bitstream Vera Sans" font-size="8.00">GstBin</text>
<text text-anchor="middle" x="1840.5" y="-98.8" font-family="Bitstream Vera Sans" font-size="8.00">Recorder fake subpipe on port 5001</text>
</g>
<g id="graph3" class="cluster"><title>cluster_Recorder_fakesink_on_port_5001_0x7f5128039a10</title>
<polygon fill="#aaaaff" stroke="black" points="1933,-16 1933,-84 2084,-84 2084,-16 1933,-16"/>
<text text-anchor="middle" x="2008.5" y="-72.8" font-family="Bitstream Vera Sans" font-size="8.00">GstFakeSink</text>
<text text-anchor="middle" x="2008.5" y="-62.8" font-family="Bitstream Vera Sans" font-size="8.00">Recorder fakesink on port 5001</text>
<text text-anchor="middle" x="2008.5" y="-52.8" font-family="Bitstream Vera Sans" font-size="8.00">sync=FALSE</text>
</g>
<g id="graph4" class="cluster"><title>cluster_firstpart_0x7f51b069e730</title>
<polygon fill="#ffffff" stroke="black" points="8,-128 8,-436 2478,-436 2478,-128 8,-128"/>
<text text-anchor="middle" x="1243" y="-424.8" font-family="Bitstream Vera Sans" font-size="8.00">GstBin</text>
<text text-anchor="middle" x="1243" y="-414.8" font-family="Bitstream Vera Sans" font-size="8.00">firstpart</text>
</g>
<g id="graph5" class="cluster"><title>cluster_playback_pipe_on_port_5001_0x7f51b069eb80</title>
<polygon fill="#ffffff" stroke="black" points="1122,-223 1122,-400 2470,-400 2470,-223 1122,-223"/>
<text text-anchor="middle" x="1796" y="-388.8" font-family="Bitstream Vera Sans" font-size="8.00">GstBin</text>
<text text-anchor="middle" x="1796" y="-378.8" font-family="Bitstream Vera Sans" font-size="8.00">playback pipe on port 5001</text>
</g>
<g id="graph6" class="cluster"><title>cluster_SWTVideo_on_port_5001_0x7f51b06175c0</title>
<polygon fill="#ffffff" stroke="black" points="1514,-231 1514,-364 2462,-364 2462,-231 1514,-231"/>
<text text-anchor="middle" x="1988" y="-352.8" font-family="Bitstream Vera Sans" font-size="8.00">GstBin</text>
<text text-anchor="middle" x="1988" y="-342.8" font-family="Bitstream Vera Sans" font-size="8.00">SWTVideo on port 5001</text>
</g>
<g id="graph7" class="cluster"><title>cluster_GstVideoComponent_0x7f51b064e4a0</title>
<polygon fill="#aaaaff" stroke="black" points="2343,-239 2343,-317 2454,-317 2454,-239 2343,-239"/>
<text text-anchor="middle" x="2398.5" y="-305.8" font-family="Bitstream Vera Sans" font-size="8.00">GstFakeSink</text>
<text text-anchor="middle" x="2398.5" y="-295.8" font-family="Bitstream Vera Sans" font-size="8.00">GstVideoComponent</text>
<text text-anchor="middle" x="2398.5" y="-285.8" font-family="Bitstream Vera Sans" font-size="8.00">preroll&#45;queue&#45;len=1</text>
<text text-anchor="middle" x="2398.5" y="-275.8" font-family="Bitstream Vera Sans" font-size="8.00">signal&#45;handoffs=TRUE</text>
</g>
<g id="graph8" class="cluster"><title>cluster_ColorFilter_0x7f51b066a080</title>
<polygon fill="#aaffaa" stroke="black" points="1673,-239 1673,-328 2343,-328 2343,-239 1673,-239"/>
<text text-anchor="middle" x="2008" y="-316.8" font-family="Bitstream Vera Sans" font-size="8.00">GstCapsFilter</text>
<text text-anchor="middle" x="2008" y="-306.8" font-family="Bitstream Vera Sans" font-size="8.00">ColorFilter</text>
<text text-anchor="middle" x="2008" y="-296.8" font-family="Bitstream Vera Sans" font-size="8.00">caps=video/x&#45;raw&#45;rgb, bpp=(int)32, depth=(int)24, endianness=(int)4321, red_mask=(int)65280, green_mask=(int)16711680, blue_mask=(int)&#45;16777216</text>
</g>
<g id="graph9" class="cluster"><title>cluster_ColorConverter_0x7f51b0668010</title>
<polygon fill="#aaffaa" stroke="black" points="1584,-239 1584,-328 1665,-328 1665,-239 1584,-239"/>
<text text-anchor="middle" x="1624.5" y="-316.8" font-family="Bitstream Vera Sans" font-size="8.00">GstFFMpegCsp</text>
<text text-anchor="middle" x="1624.5" y="-306.8" font-family="Bitstream Vera Sans" font-size="8.00">ColorConverter</text>
<text text-anchor="middle" x="1624.5" y="-296.8" font-family="Bitstream Vera Sans" font-size="8.00">qos=TRUE</text>
</g>
<g id="graph10" class="cluster"><title>cluster_playback_queue_on_port_5001_0x7f51280362b0</title>
<polygon fill="#aaffaa" stroke="black" points="1237,-235 1237,-324 1506,-324 1506,-235 1237,-235"/>
<text text-anchor="middle" x="1371.5" y="-312.8" font-family="Bitstream Vera Sans" font-size="8.00">GstQueue</text>
<text text-anchor="middle" x="1371.5" y="-302.8" font-family="Bitstream Vera Sans" font-size="8.00">playback queue on port 5001</text>
<text text-anchor="middle" x="1371.5" y="-292.8" font-family="Bitstream Vera Sans" font-size="8.00">leaky=((GstQueueLeaky) Leaky on upstream (new buffers))</text>
</g>
<g id="graph11" class="cluster"><title>cluster_Switcher_for_recording_on_port_5001_0x7f51b0867690</title>
<polygon fill="#aaffaa" stroke="black" points="1286,-136 1286,-215 1456,-215 1456,-136 1286,-136"/>
<text text-anchor="middle" x="1371" y="-203.8" font-family="Bitstream Vera Sans" font-size="8.00">GstValve</text>
<text text-anchor="middle" x="1371" y="-193.8" font-family="Bitstream Vera Sans" font-size="8.00">Switcher for recording on port 5001</text>
</g>
<g id="graph12" class="cluster"><title>cluster_recording_queue_on_port_5001_0x7f5128036020</title>
<polygon fill="#aaffaa" stroke="black" points="1085,-136 1085,-215 1229,-215 1229,-136 1085,-136"/>
<text text-anchor="middle" x="1157" y="-203.8" font-family="Bitstream Vera Sans" font-size="8.00">GstQueue</text>
<text text-anchor="middle" x="1157" y="-193.8" font-family="Bitstream Vera Sans" font-size="8.00">recording queue on port 5001</text>
</g>
<g id="graph13" class="cluster"><title>cluster_Tee_split_buffer_on_port_5001_0x7f51b036b9b0</title>
<polygon fill="#aaffaa" stroke="black" points="939,-179 939,-289 1077,-289 1077,-179 939,-179"/>
<text text-anchor="middle" x="1008" y="-277.8" font-family="Bitstream Vera Sans" font-size="8.00">GstTee</text>
<text text-anchor="middle" x="1008" y="-267.8" font-family="Bitstream Vera Sans" font-size="8.00">Tee split buffer on port 5001</text>
<text text-anchor="middle" x="1008" y="-257.8" font-family="Bitstream Vera Sans" font-size="8.00">num&#45;src&#45;pads=2</text>
</g>
<g id="graph14" class="cluster"><title>cluster_source_0x7f51b069e8a0</title>
<polygon fill="#ffffff" stroke="black" points="16,-169 16,-302 931,-302 931,-169 16,-169"/>
<text text-anchor="middle" x="473.5" y="-290.8" font-family="Bitstream Vera Sans" font-size="8.00">GstBin</text>
<text text-anchor="middle" x="473.5" y="-280.8" font-family="Bitstream Vera Sans" font-size="8.00">source</text>
</g>
<g id="graph15" class="cluster"><title>cluster_motion_detection_on_port_5001_0x7f512802e0c0</title>
<polygon fill="#aaffaa" stroke="black" points="715,-177 715,-266 861,-266 861,-177 715,-177"/>
<text text-anchor="middle" x="788" y="-254.8" font-family="Bitstream Vera Sans" font-size="8.00">GstMotionDetector</text>
<text text-anchor="middle" x="788" y="-244.8" font-family="Bitstream Vera Sans" font-size="8.00">motion detection on port 5001</text>
<text text-anchor="middle" x="788" y="-234.8" font-family="Bitstream Vera Sans" font-size="8.00">draw&#45;motion=TRUE</text>
</g>
<g id="graph16" class="cluster"><title>cluster_ffmpegcolorspace_for_the_motion_detection_on_port_5001_0x7f51b0668e10</title>
<polygon fill="#aaffaa" stroke="black" points="450,-177 450,-266 707,-266 707,-177 450,-177"/>
<text text-anchor="middle" x="578.5" y="-254.8" font-family="Bitstream Vera Sans" font-size="8.00">GstFFMpegCsp</text>
<text text-anchor="middle" x="578.5" y="-244.8" font-family="Bitstream Vera Sans" font-size="8.00">ffmpegcolorspace for the motion detection on port 5001</text>
<text text-anchor="middle" x="578.5" y="-234.8" font-family="Bitstream Vera Sans" font-size="8.00">qos=TRUE</text>
</g>
<g id="graph17" class="cluster"><title>cluster_Theora_decoder_on_port_5001_0x7f512802a040</title>
<polygon fill="#aaffaa" stroke="black" points="300,-182 300,-261 442,-261 442,-182 300,-182"/>
<text text-anchor="middle" x="371" y="-249.8" font-family="Bitstream Vera Sans" font-size="8.00">GstTheoraDec</text>
<text text-anchor="middle" x="371" y="-239.8" font-family="Bitstream Vera Sans" font-size="8.00">Theora decoder on port 5001</text>
</g>
<g id="graph18" class="cluster"><title>cluster_Ogg_demuxer_on_port_5001_0x7f51b0a3c880</title>
<polygon fill="#aaffaa" stroke="black" points="160,-182 160,-261 292,-261 292,-182 160,-182"/>
<text text-anchor="middle" x="226" y="-249.8" font-family="Bitstream Vera Sans" font-size="8.00">GstOggDemux</text>
<text text-anchor="middle" x="226" y="-239.8" font-family="Bitstream Vera Sans" font-size="8.00">Ogg demuxer on port 5001</text>
</g>
<g id="graph19" class="cluster"><title>cluster_tcpserversrc_on_port_5001_0x7f51b06f6d00</title>
<polygon fill="#ffaaaa" stroke="black" points="24,-188 24,-266 152,-266 152,-188 24,-188"/>
<text text-anchor="middle" x="88" y="-254.8" font-family="Bitstream Vera Sans" font-size="8.00">GstTCPServerSrc</text>
<text text-anchor="middle" x="88" y="-244.8" font-family="Bitstream Vera Sans" font-size="8.00">tcpserversrc on port 5001</text>
<text text-anchor="middle" x="88" y="-234.8" font-family="Bitstream Vera Sans" font-size="8.00">host=&quot;0.0.0.0&quot;</text>
<text text-anchor="middle" x="88" y="-224.8" font-family="Bitstream Vera Sans" font-size="8.00">port=5001</text>
</g>
<!-- _proxypad2_0x7f51b0676880 -->
<g id="node2" class="node"><title>_proxypad2_0x7f51b0676880</title>
<polygon fill="#ddddff" stroke="black" points="1651,-67 1597,-67 1597,-53 1651,-53 1651,-67"/>
<text text-anchor="middle" x="1624" y="-57.9" font-family="sans" font-size="9.00">proxypad2</text>
</g>
<!-- Recorder_fakesink_on_port_5001_0x7f5128039a10_sink_0x7f51280381a0 -->
<g id="node6" class="node"><title>Recorder_fakesink_on_port_5001_0x7f5128039a10_sink_0x7f51280381a0</title>
<polygon fill="#aaaaff" stroke="black" points="2035,-38 1981,-38 1981,-24 2035,-24 2035,-38"/>
<text text-anchor="middle" x="2008" y="-28.9" font-family="sans" font-size="9.00">sink</text>
</g>
<!-- _proxypad2_0x7f51b0676880&#45;&gt;Recorder_fakesink_on_port_5001_0x7f5128039a10_sink_0x7f51280381a0 -->
<g id="edge6" class="edge"><title>_proxypad2_0x7f51b0676880&#45;&gt;Recorder_fakesink_on_port_5001_0x7f5128039a10_sink_0x7f51280381a0</title>
<path fill="none" stroke="black" d="M1651,-57.9608C1718.26,-52.8815 1893.39,-39.6558 1970.55,-33.828"/>
<polygon fill="black" stroke="black" points="1971.06,-37.2996 1980.77,-33.0563 1970.54,-30.3194 1971.06,-37.2996"/>
</g>
<!-- Recorder_fake_subpipe_on_port_5001_0x7f51b069ea10_sink_0x7f51b06758e0 -->
<g id="node3" class="node"><title>Recorder_fake_subpipe_on_port_5001_0x7f51b069ea10_sink_0x7f51b06758e0</title>
<polygon fill="#ddddff" stroke="black" points="1651,-46 1597,-46 1597,-32 1651,-32 1651,-46"/>
<text text-anchor="middle" x="1624" y="-36.9" font-family="sans" font-size="9.00">sink</text>
</g>
<!-- Recorder_fake_subpipe_on_port_5001_0x7f51b069ea10_sink_0x7f51b06758e0&#45;&gt;_proxypad2_0x7f51b0676880 -->
<g id="edge3" class="edge"><title>Recorder_fake_subpipe_on_port_5001_0x7f51b069ea10_sink_0x7f51b06758e0&#45;&gt;_proxypad2_0x7f51b0676880</title>
<path fill="none" stroke="black" stroke-dasharray="5,2" d="M1624,-46.2188C1624,-46.3533 1624,-46.4879 1624,-46.6225"/>
<polygon fill="black" stroke="black" points="1620.5,-42.6787 1624,-52.6787 1627.5,-42.6788 1620.5,-42.6787"/>
</g>
<!-- _proxypad4_0x7f51b0676bc0 -->
<g id="node9" class="node"><title>_proxypad4_0x7f51b0676bc0</title>
<polygon fill="#ffdddd" stroke="black" points="1576,-171 1522,-171 1522,-157 1576,-157 1576,-171"/>
<text text-anchor="middle" x="1549" y="-161.9" font-family="sans" font-size="9.00">proxypad4</text>
</g>
<!-- firstpart_0x7f51b069e730_src_0x7f51b0675c40 -->
<g id="node11" class="node"><title>firstpart_0x7f51b069e730_src_0x7f51b0675c40</title>
<polygon fill="#ffdddd" stroke="black" points="1576,-150 1522,-150 1522,-136 1576,-136 1576,-150"/>
<text text-anchor="middle" x="1549" y="-140.9" font-family="sans" font-size="9.00">src</text>
</g>
<!-- _proxypad4_0x7f51b0676bc0&#45;&gt;firstpart_0x7f51b069e730_src_0x7f51b0675c40 -->
<g id="edge9" class="edge"><title>_proxypad4_0x7f51b0676bc0&#45;&gt;firstpart_0x7f51b069e730_src_0x7f51b0675c40</title>
<path fill="none" stroke="black" stroke-dasharray="5,2" d="M1549,-156.679C1549,-156.544 1549,-156.41 1549,-156.275"/>
<polygon fill="black" stroke="black" points="1552.5,-160.219 1549,-150.219 1545.5,-160.219 1552.5,-160.219"/>
</g>
<!-- firstpart_0x7f51b069e730_src_0x7f51b0675c40&#45;&gt;Recorder_fake_subpipe_on_port_5001_0x7f51b069ea10_sink_0x7f51b06758e0 -->
<g id="edge62" class="edge"><title>firstpart_0x7f51b069e730_src_0x7f51b0675c40&#45;&gt;Recorder_fake_subpipe_on_port_5001_0x7f51b069ea10_sink_0x7f51b06758e0</title>
<path fill="none" stroke="black" d="M1549.53,-135.983C1551.21,-118.692 1558,-73.7199 1584,-50 1585.13,-48.9685 1586.35,-48.0324 1587.63,-47.183"/>
<polygon fill="black" stroke="black" points="1589.34,-50.2456 1596.82,-42.7433 1586.29,-43.9428 1589.34,-50.2456"/>
</g>
<!-- _proxypad3_0x7f51b0676a20 -->
<g id="node13" class="node"><title>_proxypad3_0x7f51b0676a20</title>
<polygon fill="#ddddff" stroke="black" points="1184,-278 1130,-278 1130,-264 1184,-264 1184,-278"/>
<text text-anchor="middle" x="1157" y="-268.9" font-family="sans" font-size="9.00">proxypad3</text>
</g>
<!-- playback_queue_on_port_5001_0x7f51280362b0_sink_0x7f51280384a0 -->
<g id="node32" class="node"><title>playback_queue_on_port_5001_0x7f51280362b0_sink_0x7f51280384a0</title>
<polygon fill="#aaaaff" stroke="black" points="1398,-278 1344,-278 1344,-264 1398,-264 1398,-278"/>
<text text-anchor="middle" x="1371" y="-268.9" font-family="sans" font-size="9.00">sink</text>
</g>
<!-- _proxypad3_0x7f51b0676a20&#45;&gt;playback_queue_on_port_5001_0x7f51280362b0_sink_0x7f51280384a0 -->
<g id="edge29" class="edge"><title>_proxypad3_0x7f51b0676a20&#45;&gt;playback_queue_on_port_5001_0x7f51280362b0_sink_0x7f51280384a0</title>
<path fill="none" stroke="black" d="M1184.1,-271C1221.95,-271 1290.77,-271 1333.51,-271"/>
<polygon fill="black" stroke="black" points="1333.78,-274.5 1343.78,-271 1333.78,-267.5 1333.78,-274.5"/>
</g>
<!-- playback_pipe_on_port_5001_0x7f51b069eb80_sink_0x7f51b0675a90 -->
<g id="node14" class="node"><title>playback_pipe_on_port_5001_0x7f51b069eb80_sink_0x7f51b0675a90</title>
<polygon fill="#ddddff" stroke="black" points="1184,-245 1130,-245 1130,-231 1184,-231 1184,-245"/>
<text text-anchor="middle" x="1157" y="-235.9" font-family="sans" font-size="9.00">sink</text>
</g>
<!-- playback_pipe_on_port_5001_0x7f51b069eb80_sink_0x7f51b0675a90&#45;&gt;_proxypad3_0x7f51b0676a20 -->
<g id="edge12" class="edge"><title>playback_pipe_on_port_5001_0x7f51b069eb80_sink_0x7f51b0675a90&#45;&gt;_proxypad3_0x7f51b0676a20</title>
<path fill="none" stroke="black" stroke-dasharray="5,2" d="M1157,-245.219C1157,-248.018 1157,-250.816 1157,-253.615"/>
<polygon fill="black" stroke="black" points="1153.5,-253.749 1157,-263.749 1160.5,-253.749 1153.5,-253.749"/>
</g>
<!-- _proxypad0_0x7f51b0676060 -->
<g id="node17" class="node"><title>_proxypad0_0x7f51b0676060</title>
<polygon fill="#ddddff" stroke="black" points="1576,-282 1522,-282 1522,-268 1576,-268 1576,-282"/>
<text text-anchor="middle" x="1549" y="-272.9" font-family="sans" font-size="9.00">proxypad0</text>
</g>
<!-- ColorConverter_0x7f51b0668010_sink_0x7f51b064f1e0 -->
<g id="node27" class="node"><title>ColorConverter_0x7f51b0668010_sink_0x7f51b064f1e0</title>
<polygon fill="#aaaaff" stroke="black" points="1651,-282 1597,-282 1597,-268 1651,-268 1651,-282"/>
<text text-anchor="middle" x="1624" y="-272.9" font-family="sans" font-size="9.00">sink</text>
</g>
<!-- _proxypad0_0x7f51b0676060&#45;&gt;ColorConverter_0x7f51b0668010_sink_0x7f51b064f1e0 -->
<g id="edge24" class="edge"><title>_proxypad0_0x7f51b0676060&#45;&gt;ColorConverter_0x7f51b0668010_sink_0x7f51b064f1e0</title>
<path fill="none" stroke="black" d="M1576.08,-275C1579.58,-275 1583.22,-275 1586.85,-275"/>
<polygon fill="black" stroke="black" points="1586.96,-278.5 1596.96,-275 1586.96,-271.5 1586.96,-278.5"/>
</g>
<!-- SWTVideo_on_port_5001_0x7f51b06175c0_sink_0x7f51b0675070 -->
<g id="node18" class="node"><title>SWTVideo_on_port_5001_0x7f51b06175c0_sink_0x7f51b0675070</title>
<polygon fill="#ddddff" stroke="black" points="1576,-257 1522,-257 1522,-243 1576,-243 1576,-257"/>
<text text-anchor="middle" x="1549" y="-247.9" font-family="sans" font-size="9.00">sink</text>
</g>
<!-- SWTVideo_on_port_5001_0x7f51b06175c0_sink_0x7f51b0675070&#45;&gt;_proxypad0_0x7f51b0676060 -->
<g id="edge15" class="edge"><title>SWTVideo_on_port_5001_0x7f51b06175c0_sink_0x7f51b0675070&#45;&gt;_proxypad0_0x7f51b0676060</title>
<path fill="none" stroke="black" stroke-dasharray="5,2" d="M1549,-257.031C1549,-257.259 1549,-257.487 1549,-257.716"/>
<polygon fill="black" stroke="black" points="1545.5,-257.981 1549,-267.981 1552.5,-257.981 1545.5,-257.981"/>
</g>
<!-- GstVideoComponent_0x7f51b064e4a0_sink_0x7f51b064f060 -->
<g id="node21" class="node"><title>GstVideoComponent_0x7f51b064e4a0_sink_0x7f51b064f060</title>
<polygon fill="#aaaaff" stroke="black" points="2425,-261 2371,-261 2371,-247 2425,-247 2425,-261"/>
<text text-anchor="middle" x="2398" y="-251.9" font-family="sans" font-size="9.00">sink</text>
</g>
<!-- ColorFilter_0x7f51b066a080_sink_0x7f51b064f4e0 -->
<g id="node23" class="node"><title>ColorFilter_0x7f51b066a080_sink_0x7f51b064f4e0</title>
<polygon fill="#aaaaff" stroke="black" points="2035,-282 1981,-282 1981,-268 2035,-268 2035,-282"/>
<text text-anchor="middle" x="2008" y="-272.9" font-family="sans" font-size="9.00">sink</text>
</g>
<!-- ColorFilter_0x7f51b066a080_src_0x7f51b064f660 -->
<g id="node24" class="node"><title>ColorFilter_0x7f51b066a080_src_0x7f51b064f660</title>
<polygon fill="#ffaaaa" stroke="black" points="2035,-261 1981,-261 1981,-247 2035,-247 2035,-261"/>
<text text-anchor="middle" x="2008" y="-251.9" font-family="sans" font-size="9.00">src</text>
</g>
<!-- ColorFilter_0x7f51b066a080_src_0x7f51b064f660&#45;&gt;GstVideoComponent_0x7f51b064e4a0_sink_0x7f51b064f060 -->
<g id="edge19" class="edge"><title>ColorFilter_0x7f51b066a080_src_0x7f51b064f660&#45;&gt;GstVideoComponent_0x7f51b064e4a0_sink_0x7f51b064f060</title>
<path fill="none" stroke="black" d="M2035.11,-254C2103.33,-254 2282.22,-254 2360.46,-254"/>
<polygon fill="black" stroke="black" points="2360.81,-257.5 2370.81,-254 2360.81,-250.5 2360.81,-257.5"/>
</g>
<!-- ColorConverter_0x7f51b0668010_src_0x7f51b064f360 -->
<g id="node28" class="node"><title>ColorConverter_0x7f51b0668010_src_0x7f51b064f360</title>
<polygon fill="#ffaaaa" stroke="black" points="1651,-261 1597,-261 1597,-247 1651,-247 1651,-261"/>
<text text-anchor="middle" x="1624" y="-251.9" font-family="sans" font-size="9.00">src</text>
</g>
<!-- ColorConverter_0x7f51b0668010_src_0x7f51b064f360&#45;&gt;ColorFilter_0x7f51b066a080_sink_0x7f51b064f4e0 -->
<g id="edge22" class="edge"><title>ColorConverter_0x7f51b0668010_src_0x7f51b064f360&#45;&gt;ColorFilter_0x7f51b066a080_sink_0x7f51b064f4e0</title>
<path fill="none" stroke="black" d="M1651.08,-260.375C1658.18,-261.811 1665.84,-263.158 1673,-264 1780.63,-276.658 1908.94,-276.721 1970.89,-275.815"/>
<polygon fill="black" stroke="black" points="1971.02,-279.313 1980.96,-275.65 1970.91,-272.314 1971.02,-279.313"/>
</g>
<!-- playback_queue_on_port_5001_0x7f51280362b0_src_0x7f5128038620 -->
<g id="node33" class="node"><title>playback_queue_on_port_5001_0x7f51280362b0_src_0x7f5128038620</title>
<polygon fill="#ffaaaa" stroke="black" points="1398,-257 1344,-257 1344,-243 1398,-243 1398,-257"/>
<text text-anchor="middle" x="1371" y="-247.9" font-family="sans" font-size="9.00">src</text>
</g>
<!-- playback_queue_on_port_5001_0x7f51280362b0_src_0x7f5128038620&#45;&gt;SWTVideo_on_port_5001_0x7f51b06175c0_sink_0x7f51b0675070 -->
<g id="edge27" class="edge"><title>playback_queue_on_port_5001_0x7f51280362b0_src_0x7f5128038620&#45;&gt;SWTVideo_on_port_5001_0x7f51b06175c0_sink_0x7f51b0675070</title>
<path fill="none" stroke="black" d="M1398.03,-250C1428.35,-250 1477.72,-250 1511.7,-250"/>
<polygon fill="black" stroke="black" points="1511.71,-253.5 1521.71,-250 1511.71,-246.5 1511.71,-253.5"/>
</g>
<!-- Switcher_for_recording_on_port_5001_0x7f51b0867690_sink_0x7f512801aca0 -->
<g id="node37" class="node"><title>Switcher_for_recording_on_port_5001_0x7f51b0867690_sink_0x7f512801aca0</title>
<polygon fill="#aaaaff" stroke="black" points="1398,-179 1344,-179 1344,-165 1398,-165 1398,-179"/>
<text text-anchor="middle" x="1371" y="-169.9" font-family="sans" font-size="9.00">sink</text>
</g>
<!-- Switcher_for_recording_on_port_5001_0x7f51b0867690_src_0x7f512801ab20 -->
<g id="node38" class="node"><title>Switcher_for_recording_on_port_5001_0x7f51b0867690_src_0x7f512801ab20</title>
<polygon fill="#ffaaaa" stroke="black" points="1398,-158 1344,-158 1344,-144 1398,-144 1398,-158"/>
<text text-anchor="middle" x="1371" y="-148.9" font-family="sans" font-size="9.00">src</text>
</g>
<!-- Switcher_for_recording_on_port_5001_0x7f51b0867690_src_0x7f512801ab20&#45;&gt;_proxypad4_0x7f51b0676bc0 -->
<g id="edge32" class="edge"><title>Switcher_for_recording_on_port_5001_0x7f51b0867690_src_0x7f512801ab20&#45;&gt;_proxypad4_0x7f51b0676bc0</title>
<path fill="none" stroke="black" d="M1398.03,-152.974C1428.35,-155.189 1477.72,-158.794 1511.7,-161.276"/>
<polygon fill="black" stroke="black" points="1511.48,-164.769 1521.71,-162.007 1511.99,-157.788 1511.48,-164.769"/>
</g>
<!-- recording_queue_on_port_5001_0x7f5128036020_sink_0x7f512801ae20 -->
<g id="node41" class="node"><title>recording_queue_on_port_5001_0x7f5128036020_sink_0x7f512801ae20</title>
<polygon fill="#aaaaff" stroke="black" points="1184,-179 1130,-179 1130,-165 1184,-165 1184,-179"/>
<text text-anchor="middle" x="1157" y="-169.9" font-family="sans" font-size="9.00">sink</text>
</g>
<!-- recording_queue_on_port_5001_0x7f5128036020_src_0x7f5128038020 -->
<g id="node42" class="node"><title>recording_queue_on_port_5001_0x7f5128036020_src_0x7f5128038020</title>
<polygon fill="#ffaaaa" stroke="black" points="1184,-158 1130,-158 1130,-144 1184,-144 1184,-158"/>
<text text-anchor="middle" x="1157" y="-148.9" font-family="sans" font-size="9.00">src</text>
</g>
<!-- recording_queue_on_port_5001_0x7f5128036020_src_0x7f5128038020&#45;&gt;Switcher_for_recording_on_port_5001_0x7f51b0867690_sink_0x7f512801aca0 -->
<g id="edge35" class="edge"><title>recording_queue_on_port_5001_0x7f5128036020_src_0x7f5128038020&#45;&gt;Switcher_for_recording_on_port_5001_0x7f51b0867690_sink_0x7f512801aca0</title>
<path fill="none" stroke="black" d="M1184.37,-154.713C1199.8,-156.734 1219.46,-159.184 1237,-161 1269.59,-164.373 1306.73,-167.354 1333.63,-169.359"/>
<polygon fill="black" stroke="black" points="1333.53,-172.862 1343.76,-170.105 1334.05,-165.881 1333.53,-172.862"/>
</g>
<!-- Tee_split_buffer_on_port_5001_0x7f51b036b9b0_sink_0x7f512801a9a0 -->
<g id="node45" class="node"><title>Tee_split_buffer_on_port_5001_0x7f51b036b9b0_sink_0x7f512801a9a0</title>
<polygon fill="#aaaaff" stroke="black" points="1035,-243 981,-243 981,-229 1035,-229 1035,-243"/>
<text text-anchor="middle" x="1008" y="-233.9" font-family="sans" font-size="9.00">sink</text>
</g>
<!-- Tee_split_buffer_on_port_5001_0x7f51b036b9b0_src1_0x7f5128038920 -->
<g id="node46" class="node"><title>Tee_split_buffer_on_port_5001_0x7f51b036b9b0_src1_0x7f5128038920</title>
<polygon fill="#ffaaaa" stroke="black" stroke-dasharray="5,2" points="1035,-222 981,-222 981,-208 1035,-208 1035,-222"/>
<text text-anchor="middle" x="1008" y="-212.9" font-family="sans" font-size="9.00">src1</text>
</g>
<!-- Tee_split_buffer_on_port_5001_0x7f51b036b9b0_src1_0x7f5128038920&#45;&gt;playback_pipe_on_port_5001_0x7f51b069eb80_sink_0x7f51b0675a90 -->
<g id="edge38" class="edge"><title>Tee_split_buffer_on_port_5001_0x7f51b036b9b0_src1_0x7f5128038920&#45;&gt;playback_pipe_on_port_5001_0x7f51b069eb80_sink_0x7f51b0675a90</title>
<path fill="none" stroke="black" d="M1035.33,-219.219C1059.06,-222.882 1093.65,-228.221 1119.88,-232.27"/>
<polygon fill="black" stroke="black" points="1119.43,-235.742 1129.84,-233.808 1120.5,-228.824 1119.43,-235.742"/>
</g>
<!-- Tee_split_buffer_on_port_5001_0x7f51b036b9b0_src0_0x7f51280387a0 -->
<g id="node47" class="node"><title>Tee_split_buffer_on_port_5001_0x7f51b036b9b0_src0_0x7f51280387a0</title>
<polygon fill="#ffaaaa" stroke="black" stroke-dasharray="5,2" points="1035,-201 981,-201 981,-187 1035,-187 1035,-201"/>
<text text-anchor="middle" x="1008" y="-191.9" font-family="sans" font-size="9.00">src0</text>
</g>
<!-- Tee_split_buffer_on_port_5001_0x7f51b036b9b0_src0_0x7f51280387a0&#45;&gt;recording_queue_on_port_5001_0x7f5128036020_sink_0x7f512801ae20 -->
<g id="edge40" class="edge"><title>Tee_split_buffer_on_port_5001_0x7f51b036b9b0_src0_0x7f51280387a0&#45;&gt;recording_queue_on_port_5001_0x7f5128036020_sink_0x7f512801ae20</title>
<path fill="none" stroke="black" d="M1035.33,-189.965C1059.06,-186.461 1093.65,-181.354 1119.88,-177.48"/>
<polygon fill="black" stroke="black" points="1120.46,-180.933 1129.84,-176.01 1119.44,-174.008 1120.46,-180.933"/>
</g>
<!-- _proxypad1_0x7f51b06766e0 -->
<g id="node51" class="node"><title>_proxypad1_0x7f51b06766e0</title>
<polygon fill="#ffdddd" stroke="black" points="923,-199 869,-199 869,-185 923,-185 923,-199"/>
<text text-anchor="middle" x="896" y="-189.9" font-family="sans" font-size="9.00">proxypad1</text>
</g>
<!-- source_0x7f51b069e8a0_src_0x7f51b0675730 -->
<g id="node53" class="node"><title>source_0x7f51b069e8a0_src_0x7f51b0675730</title>
<polygon fill="#ffdddd" stroke="black" points="923,-243 869,-243 869,-229 923,-229 923,-243"/>
<text text-anchor="middle" x="896" y="-233.9" font-family="sans" font-size="9.00">src</text>
</g>
<!-- _proxypad1_0x7f51b06766e0&#45;&gt;source_0x7f51b069e8a0_src_0x7f51b0675730 -->
<g id="edge43" class="edge"><title>_proxypad1_0x7f51b06766e0&#45;&gt;source_0x7f51b069e8a0_src_0x7f51b0675730</title>
<path fill="none" stroke="black" stroke-dasharray="5,2" d="M896,-199.219C896,-205.693 896,-212.168 896,-218.642"/>
<polygon fill="black" stroke="black" points="892.5,-218.816 896,-228.816 899.5,-218.816 892.5,-218.816"/>
</g>
<!-- source_0x7f51b069e8a0_src_0x7f51b0675730&#45;&gt;Tee_split_buffer_on_port_5001_0x7f51b036b9b0_sink_0x7f512801a9a0 -->
<g id="edge60" class="edge"><title>source_0x7f51b069e8a0_src_0x7f51b0675730&#45;&gt;Tee_split_buffer_on_port_5001_0x7f51b036b9b0_sink_0x7f512801a9a0</title>
<path fill="none" stroke="black" d="M923.112,-236C937.314,-236 954.93,-236 970.427,-236"/>
<polygon fill="black" stroke="black" points="970.749,-239.5 980.749,-236 970.749,-232.5 970.749,-239.5"/>
</g>
<!-- motion_detection_on_port_5001_0x7f512802e0c0_sink_0x7f512801a3a0 -->
<g id="node55" class="node"><title>motion_detection_on_port_5001_0x7f512802e0c0_sink_0x7f512801a3a0</title>
<polygon fill="#aaaaff" stroke="black" points="815,-220 761,-220 761,-206 815,-206 815,-220"/>
<text text-anchor="middle" x="788" y="-210.9" font-family="sans" font-size="9.00">sink</text>
</g>
<!-- motion_detection_on_port_5001_0x7f512802e0c0_src_0x7f512801a520 -->
<g id="node56" class="node"><title>motion_detection_on_port_5001_0x7f512802e0c0_src_0x7f512801a520</title>
<polygon fill="#ffaaaa" stroke="black" points="815,-199 761,-199 761,-185 815,-185 815,-199"/>
<text text-anchor="middle" x="788" y="-189.9" font-family="sans" font-size="9.00">src</text>
</g>
<!-- motion_detection_on_port_5001_0x7f512802e0c0_src_0x7f512801a520&#45;&gt;_proxypad1_0x7f51b06766e0 -->
<g id="edge46" class="edge"><title>motion_detection_on_port_5001_0x7f512802e0c0_src_0x7f512801a520&#45;&gt;_proxypad1_0x7f51b06766e0</title>
<path fill="none" stroke="black" d="M815.253,-192C828.427,-192 844.443,-192 858.727,-192"/>
<polygon fill="black" stroke="black" points="858.756,-195.5 868.756,-192 858.756,-188.5 858.756,-195.5"/>
</g>
<!-- ffmpegcolorspace_for_the_motion_detection_on_port_5001_0x7f51b0668e10_sink_0x7f512801a6a0 -->
<g id="node59" class="node"><title>ffmpegcolorspace_for_the_motion_detection_on_port_5001_0x7f51b0668e10_sink_0x7f512801a6a0</title>
<polygon fill="#aaaaff" stroke="black" points="605,-220 551,-220 551,-206 605,-206 605,-220"/>
<text text-anchor="middle" x="578" y="-210.9" font-family="sans" font-size="9.00">sink</text>
</g>
<!-- ffmpegcolorspace_for_the_motion_detection_on_port_5001_0x7f51b0668e10_src_0x7f512801a820 -->
<g id="node60" class="node"><title>ffmpegcolorspace_for_the_motion_detection_on_port_5001_0x7f51b0668e10_src_0x7f512801a820</title>
<polygon fill="#ffaaaa" stroke="black" points="605,-199 551,-199 551,-185 605,-185 605,-199"/>
<text text-anchor="middle" x="578" y="-189.9" font-family="sans" font-size="9.00">src</text>
</g>
<!-- ffmpegcolorspace_for_the_motion_detection_on_port_5001_0x7f51b0668e10_src_0x7f512801a820&#45;&gt;motion_detection_on_port_5001_0x7f512802e0c0_sink_0x7f512801a3a0 -->
<g id="edge49" class="edge"><title>ffmpegcolorspace_for_the_motion_detection_on_port_5001_0x7f51b0668e10_src_0x7f512801a820&#45;&gt;motion_detection_on_port_5001_0x7f512802e0c0_sink_0x7f512801a3a0</title>
<path fill="none" stroke="black" d="M605.208,-194.02C631.335,-196.031 671.901,-199.338 707,-203 721.262,-204.488 736.907,-206.362 750.612,-208.085"/>
<polygon fill="black" stroke="black" points="750.297,-211.573 760.659,-209.364 751.181,-204.629 750.297,-211.573"/>
</g>
<!-- Theora_decoder_on_port_5001_0x7f512802a040_sink_0x7f512801a0a0 -->
<g id="node63" class="node"><title>Theora_decoder_on_port_5001_0x7f512802a040_sink_0x7f512801a0a0</title>
<polygon fill="#aaaaff" stroke="black" points="398,-225 344,-225 344,-211 398,-211 398,-225"/>
<text text-anchor="middle" x="371" y="-215.9" font-family="sans" font-size="9.00">sink</text>
</g>
<!-- Theora_decoder_on_port_5001_0x7f512802a040_src_0x7f512801a220 -->
<g id="node64" class="node"><title>Theora_decoder_on_port_5001_0x7f512802a040_src_0x7f512801a220</title>
<polygon fill="#ffaaaa" stroke="black" points="398,-204 344,-204 344,-190 398,-190 398,-204"/>
<text text-anchor="middle" x="371" y="-194.9" font-family="sans" font-size="9.00">src</text>
</g>
<!-- Theora_decoder_on_port_5001_0x7f512802a040_src_0x7f512801a220&#45;&gt;ffmpegcolorspace_for_the_motion_detection_on_port_5001_0x7f51b0668e10_sink_0x7f512801a6a0 -->
<g id="edge52" class="edge"><title>Theora_decoder_on_port_5001_0x7f512802a040_src_0x7f512801a220&#45;&gt;ffmpegcolorspace_for_the_motion_detection_on_port_5001_0x7f51b0668e10_sink_0x7f512801a6a0</title>
<path fill="none" stroke="black" d="M398.062,-199.092C434.556,-201.913 499.698,-206.948 540.784,-210.123"/>
<polygon fill="black" stroke="black" points="540.692,-213.627 550.932,-210.908 541.231,-206.647 540.692,-213.627"/>
</g>
<!-- Ogg_demuxer_on_port_5001_0x7f51b0a3c880_sink_0x7f51b064fde0 -->
<g id="node67" class="node"><title>Ogg_demuxer_on_port_5001_0x7f51b0a3c880_sink_0x7f51b064fde0</title>
<polygon fill="#aaaaff" stroke="black" points="253,-225 199,-225 199,-211 253,-211 253,-225"/>
<text text-anchor="middle" x="226" y="-215.9" font-family="sans" font-size="9.00">sink</text>
</g>
<!-- Ogg_demuxer_on_port_5001_0x7f51b0a3c880_serial_7d93bea3_0x7f514c005850 -->
<g id="node68" class="node"><title>Ogg_demuxer_on_port_5001_0x7f51b0a3c880_serial_7d93bea3_0x7f514c005850</title>
<polygon fill="#ffaaaa" stroke="black" points="265,-204 187,-204 187,-190 265,-190 265,-204"/>
<text text-anchor="middle" x="226" y="-194.9" font-family="sans" font-size="9.00">serial_7d93bea3</text>
</g>
<!-- Ogg_demuxer_on_port_5001_0x7f51b0a3c880_serial_7d93bea3_0x7f514c005850&#45;&gt;Theora_decoder_on_port_5001_0x7f512802a040_sink_0x7f512801a0a0 -->
<g id="edge55" class="edge"><title>Ogg_demuxer_on_port_5001_0x7f51b0a3c880_serial_7d93bea3_0x7f514c005850&#45;&gt;Theora_decoder_on_port_5001_0x7f512802a040_sink_0x7f512801a0a0</title>
<path fill="none" stroke="black" d="M265.622,-202.738C286.855,-205.813 312.86,-209.58 333.725,-212.602"/>
<polygon fill="black" stroke="black" points="333.413,-216.093 343.812,-214.062 334.417,-209.165 333.413,-216.093"/>
</g>
<!-- tcpserversrc_on_port_5001_0x7f51b06f6d00_src_0x7f51b064fc60 -->
<g id="node71" class="node"><title>tcpserversrc_on_port_5001_0x7f51b06f6d00_src_0x7f51b064fc60</title>
<polygon fill="#ffaaaa" stroke="black" points="115,-210 61,-210 61,-196 115,-196 115,-210"/>
<text text-anchor="middle" x="88" y="-200.9" font-family="sans" font-size="9.00">src</text>
</g>
<!-- tcpserversrc_on_port_5001_0x7f51b06f6d00_src_0x7f51b064fc60&#45;&gt;Ogg_demuxer_on_port_5001_0x7f51b0a3c880_sink_0x7f51b064fde0 -->
<g id="edge58" class="edge"><title>tcpserversrc_on_port_5001_0x7f51b06f6d00_src_0x7f51b064fc60&#45;&gt;Ogg_demuxer_on_port_5001_0x7f51b0a3c880_sink_0x7f51b064fde0</title>
<path fill="none" stroke="black" d="M115.264,-205.964C136.244,-208.244 165.471,-211.421 188.63,-213.938"/>
<polygon fill="black" stroke="black" points="188.473,-217.441 198.792,-215.043 189.229,-210.482 188.473,-217.441"/>
</g>
</g>
</svg>
